<svg id="icons" xmlns="http://www.w3.org/2000/svg" xmlns:xlink="http://www.w3.org/1999/xlink" viewBox="0 0 64 64"><defs><style>.cls-1{opacity:0.08;}.cls-2{fill:url(#linear-gradient);}.cls-3{opacity:0.16;}.cls-4{fill:url(#linear-gradient-2);}.cls-5{fill:url(#linear-gradient-3);}</style><linearGradient id="linear-gradient" x1="32" y1="62" x2="32" y2="2" gradientUnits="userSpaceOnUse"><stop offset="0" stop-color="#3871e9"/><stop offset="1" stop-color="#61c5f6"/></linearGradient><linearGradient id="linear-gradient-2" x1="32" y1="62" x2="32" y2="2" gradientUnits="userSpaceOnUse"><stop offset="0"/><stop offset="0.36" stop-opacity="0"/></linearGradient><linearGradient id="linear-gradient-3" x1="32" y1="48" x2="32" y2="16" gradientUnits="userSpaceOnUse"><stop offset="0" stop-color="#e2eff6"/><stop offset="1" stop-color="#fff"/></linearGradient></defs><title>search</title><g class="cls-1"><circle cx="32" cy="33" r="30"/></g><circle class="cls-2" cx="32" cy="32" r="30"/><g class="cls-3"><path class="cls-4" d="M32,2A30,30,0,1,0,62,32,30,30,0,0,0,32,2Zm0,58A28,28,0,1,1,60,32,28.03145,28.03145,0,0,1,32,60Z"/></g><path class="cls-5" d="M47.41406,44.58594l-7.9306-7.9306a13.048,13.048,0,1,0-2.82812,2.82813l7.9306,7.9306a1.99979,1.99979,0,0,0,2.82813-2.82812ZM20,29a9,9,0,1,1,9,9A9.01015,9.01015,0,0,1,20,29Z"/><g class="cls-3"><path d="M32,2A30,30,0,1,0,62,32,30,30,0,0,0,32,2Zm0,59A29,29,0,1,1,61,32,29,29,0,0,1,32,61Z"/></g></svg>